<svg id="icons" xmlns="http://www.w3.org/2000/svg" viewBox="0 0 64 64"><defs><style>.cls-1{fill:none;stroke:#000;stroke-linecap:round;stroke-linejoin:round;stroke-width:2px;}</style></defs><title>bus</title><g id="bus"><polyline class="cls-1" points="2.69 35.05 13.26 35.03 13.26 25.19 6.48 25.19"/><ellipse class="cls-1" cx="47.42" cy="47.01" rx="4.08" ry="3.85"/><ellipse class="cls-1" cx="17.34" cy="47.01" rx="4.08" ry="3.85"/><rect class="cls-1" x="19.44" y="25.19" width="11.78" height="10.06" transform="translate(50.67 60.43) rotate(-180)"/><rect class="cls-1" x="37.03" y="25.19" width="11.78" height="10.06" transform="translate(85.84 60.43) rotate(-180)"/><polyline class="cls-1" points="60.52 35.25 54.63 35.25 54.63 25.19 60.52 25.19"/><path class="cls-1" d="M51.5,47h6a3,3,0,0,0,3-3v-22a3,3,0,0,0-3-3H10.68c-1.65,0-2.46,1.28-3,3l-1.2,3.11-3.8,9.87v9a3,3,0,0,0,3,3h7.58"/><line class="cls-1" x1="21.42" y1="47.01" x2="43.34" y2="47.01"/><line class="cls-1" x1="2.69" y1="41.39" x2="7.3" y2="41.39"/></g></svg>