<svg id="icons" xmlns="http://www.w3.org/2000/svg" viewBox="0 0 64 64"><defs><style>.cls-1{fill:none;stroke:#000;stroke-linecap:round;stroke-linejoin:round;stroke-width:2px;}</style></defs><title>car_3</title><g id="car_3"><polyline class="cls-1" points="57.06 33.05 60.49 33.05 60.49 25.01 57.06 25.01"/><line class="cls-1" x1="2.43" y1="33.94" x2="7.03" y2="33.94"/><ellipse class="cls-1" cx="45.41" cy="42.13" rx="3.73" ry="3.85"/><ellipse class="cls-1" cx="13.89" cy="42.13" rx="4.08" ry="3.85"/><line class="cls-1" x1="17.97" y1="42.13" x2="41.68" y2="42.13"/><path class="cls-1" d="M49.14,42.13h5.5a2.55,2.55,0,0,0,2.42-2.66V20.85A2.83,2.83,0,0,0,54.24,18h-26a3.24,3.24,0,0,0-2.7,1.4l-1.88,2.77L19,29H51.48a1.27,1.27,0,0,0,1.31-1.23V23.42a1.27,1.27,0,0,0-1.31-1.23H23.63"/><path class="cls-1" d="M19.14,29H5.82a3.4,3.4,0,0,0-3.39,3.4v7c0,1.47,1.47,2.66,3.28,2.66H9.8"/><line class="cls-1" x1="45.08" y1="22.19" x2="45.08" y2="29.03"/><line class="cls-1" x1="33.12" y1="22.19" x2="33.12" y2="29.03"/></g></svg>