<svg id="icons" xmlns="http://www.w3.org/2000/svg" viewBox="0 0 64 64"><defs><style>.cls-1{fill:none;stroke:#000;stroke-linecap:round;stroke-linejoin:round;stroke-width:2px;}</style></defs><title>car_2</title><g id="car_2"><line class="cls-1" x1="2.54" y1="33.44" x2="7.15" y2="33.44"/><ellipse class="cls-1" cx="48.14" cy="41.63" rx="4.08" ry="3.85"/><ellipse class="cls-1" cx="14" cy="41.63" rx="4.08" ry="3.85"/><line class="cls-1" x1="18.08" y1="41.63" x2="44.05" y2="41.63"/><path class="cls-1" d="M9.91,41.63H5.82C4,41.63,2.54,40.44,2.54,39v-7a3.4,3.4,0,0,1,3.4-3.4h7.44a3.35,3.35,0,0,0,2.25-.86l9.07-8.12a4,4,0,0,1,2.68-1H46.1a2.2,2.2,0,0,1,1.86,1l4.87,7.8A2.51,2.51,0,0,0,55,28.53h3.74a2.09,2.09,0,0,1,2.19,2V39A2.81,2.81,0,0,1,58,41.63H52.22"/><path class="cls-1" d="M13.4,28.53H44.5a1.27,1.27,0,0,0,1.11-1.85l-4.17-8.17"/><line class="cls-1" x1="33.56" y1="18.52" x2="33.56" y2="28.53"/></g></svg>