<svg id="icons" xmlns="http://www.w3.org/2000/svg" viewBox="0 0 64 64"><defs><style>.cls-1{fill:none;stroke:#000;stroke-linecap:round;stroke-linejoin:round;stroke-width:2px;}</style></defs><title>car_1</title><g id="car_1"><line class="cls-1" x1="2.43" y1="33.45" x2="7.03" y2="33.45"/><ellipse class="cls-1" cx="48.03" cy="41.64" rx="4.08" ry="3.85"/><ellipse class="cls-1" cx="13.89" cy="41.64" rx="4.08" ry="3.85"/><line class="cls-1" x1="17.97" y1="41.64" x2="43.94" y2="41.64"/><path class="cls-1" d="M52.11,41.64h5.73A2.82,2.82,0,0,0,60.79,39V29.92a3.51,3.51,0,0,0-1-2.42l-8.46-8a3.12,3.12,0,0,0-2.28-1H27.51a3.63,3.63,0,0,0-2.87,1.41L18,28.56"/><path class="cls-1" d="M44.83,18.51,50,27.26a.78.78,0,0,1-.57,1.31l-34.89,0H5.82a3.4,3.4,0,0,0-3.39,3.4v7c0,1.47,1.47,2.66,3.28,2.66H9.8"/><line class="cls-1" x1="32.61" y1="18.53" x2="32.61" y2="28.56"/></g></svg>