<svg id="icons" xmlns="http://www.w3.org/2000/svg" viewBox="0 0 64 64"><defs><style>.cls-1{fill:none;stroke:#000;stroke-linecap:round;stroke-linejoin:round;stroke-width:2px;}</style></defs><title>car_4</title><g id="car_4"><line class="cls-1" x1="2.43" y1="33.94" x2="7.03" y2="33.94"/><ellipse class="cls-1" cx="48.03" cy="42.13" rx="4.08" ry="3.85"/><ellipse class="cls-1" cx="13.89" cy="42.13" rx="4.08" ry="3.85"/><line class="cls-1" x1="17.97" y1="42.13" x2="43.94" y2="42.13"/><path class="cls-1" d="M52.11,42.13h5.73a2.82,2.82,0,0,0,2.95-2.66V31a2.09,2.09,0,0,0-2.19-2H34.45V19.24A1.22,1.22,0,0,0,33.23,18h-7.5a4.25,4.25,0,0,0-3.28,1.4l-2.28,2.77L14.55,29H28a1.44,1.44,0,0,0,1.59-1.23V23.42A1.44,1.44,0,0,0,28,22.19H20.14"/><path class="cls-1" d="M14.55,29H5.82a3.4,3.4,0,0,0-3.39,3.4v7c0,1.47,1.47,2.66,3.28,2.66H9.8"/></g></svg>