<svg id="icons" xmlns="http://www.w3.org/2000/svg" viewBox="0 0 64 64"><defs><style>.cls-1{fill:none;stroke:#000;stroke-linecap:round;stroke-linejoin:round;stroke-width:2px;}</style></defs><title>forklift</title><g id="forklift"><circle class="cls-1" cx="22.79" cy="43.59" r="8.73"/><circle class="cls-1" cx="52.43" cy="46.16" r="6.16"/><line class="cls-1" x1="58.6" y1="30.86" x2="51.65" y2="30.86"/><line class="cls-1" x1="46.27" y1="46.16" x2="31.13" y2="46.16"/><path class="cls-1" d="M52.43,25.17V10.68A3.82,3.82,0,0,0,48.6,6.85H38.29a3.82,3.82,0,0,0-3.47,2.21l-12,25.8H39.87a8.91,8.91,0,0,1,2.54-6.29,11.31,11.31,0,0,1,8.24-3.4h5a2.92,2.92,0,0,1,2.92,2.92V46.16"/><polyline class="cls-1" points="14.06 6.85 14.06 43.59 2.82 43.59"/></g></svg>