<svg id="icons" xmlns="http://www.w3.org/2000/svg" viewBox="0 0 64 64"><defs><style>.cls-1{fill:none;stroke:#000;stroke-linecap:round;stroke-linejoin:round;stroke-width:2px;}</style></defs><title>hellicopter</title><g id="hellicopter"><path class="cls-1" d="M33.26,27.52l-2.5,7.26a2,2,0,0,1-1.84,1.31H22.55a1.94,1.94,0,0,1-1.81-2.63l1.6-4.25a2.61,2.61,0,0,1,2.44-1.69H49.67l5-6h4.1L54.27,32.24l-12.41,3a7.55,7.55,0,0,0-4.66,3.46c-1,1.69-2.67,3.56-4.79,3.56H10.23a3.69,3.69,0,0,1-3.1-1.69C5,37.33,2.5,30,16.5,24a12.06,12.06,0,0,1,4.77-1H35.56c2.14,0,2.94.8,2.95,1.8l0,2.73"/><polyline class="cls-1" points="27.11 22.99 27.11 18.12 23.54 18.12 23.54 22.99"/><rect class="cls-1" x="22.43" y="14.09" width="5.79" height="4.02" rx="1.4" transform="translate(50.65 32.21) rotate(-180)"/><line class="cls-1" x1="22.43" y1="16.44" x2="2.48" y2="16.44"/><line class="cls-1" x1="48.16" y1="16.44" x2="28.22" y2="16.44"/><line class="cls-1" x1="32.41" y1="42.29" x2="32.41" y2="47.79"/><line class="cls-1" x1="13.76" y1="42.29" x2="13.76" y2="47.8"/><line class="cls-1" x1="39.14" y1="47.79" x2="8.66" y2="47.8"/><line class="cls-1" x1="8.66" y1="47.8" x2="5.4" y2="44.54"/><path class="cls-1" d="M16.5,24v7A6.42,6.42,0,0,1,12.19,37L6.31,39.07"/><path class="cls-1" d="M51.48,25.35a6.24,6.24,0,0,1-1.27-3.79,6.35,6.35,0,1,1,6.35,6.34l-.46,0"/></g></svg>