<svg id="icons" xmlns="http://www.w3.org/2000/svg" viewBox="0 0 64 64"><defs><style>.cls-1{fill:none;stroke:#000;stroke-linecap:round;stroke-linejoin:round;stroke-width:2px;}</style></defs><title>lift</title><g id="lift"><rect class="cls-1" x="8.58" y="28.63" width="46.07" height="32.89" rx="4.93" transform="translate(63.22 90.16) rotate(-180)"/><rect class="cls-1" x="23.67" y="33.33" width="15.9" height="15.9" rx="2.45" transform="translate(63.23 82.56) rotate(-180)"/><path class="cls-1" d="M54.64,33.33H46.52a1.77,1.77,0,0,0-1.77,1.77V47.46a1.77,1.77,0,0,0,1.77,1.77h8.12"/><path class="cls-1" d="M8.58,33.33H16.7a1.77,1.77,0,0,1,1.77,1.77V47.46a1.77,1.77,0,0,1-1.77,1.77H8.58"/><polyline class="cls-1" points="54.64 17.14 33.62 11.62 33.62 28.63"/><polyline class="cls-1" points="8.58 4.55 28.61 10.33 28.61 28.63"/><path class="cls-1" d="M40.84,13.52v-2.8a2.83,2.83,0,0,0-2-2.7L25.08,3.64a2.83,2.83,0,0,0-3.69,2.7v1.9"/></g></svg>