<svg id="icons" xmlns="http://www.w3.org/2000/svg" viewBox="0 0 64 64"><defs><style>.cls-1{fill:none;stroke:#000;stroke-linecap:round;stroke-linejoin:round;stroke-width:2px;}</style></defs><title>loader</title><g id="loader"><path class="cls-1" d="M44.25,13.77V10.92c0-1.08-.23-.95-1.73-.95s-1.73-.13-1.73.95v2.85"/><circle class="cls-1" cx="25.83" cy="42.06" r="6.16"/><circle class="cls-1" cx="55.48" cy="42.06" r="6.16"/><path class="cls-1" d="M31.5,27.77,34.34,18l.72-2.48a2.27,2.27,0,0,1,2.08-1.76H49.49a2.43,2.43,0,0,1,2.19,2.61V27.77"/><path class="cls-1" d="M34.34,18h9.59A1.9,1.9,0,0,1,46,19.72v8.05H31.5"/><line class="cls-1" x1="31.99" y1="42.06" x2="49.31" y2="42.06"/><path class="cls-1" d="M46,27.77H19.67a3.74,3.74,0,0,0-3.75,3.74v1.16"/><path class="cls-1" d="M15.92,37.32v2.91a1.83,1.83,0,0,0,1.83,1.83h1.92"/><path class="cls-1" d="M61.64,42.06V30.88a3.11,3.11,0,0,0-3.11-3.11H51.68"/><path class="cls-1" d="M25.83,27.77V22.24A5.94,5.94,0,0,1,27.6,18h0"/><path class="cls-1" d="M21.89,37.32H9.05V39.9a2.21,2.21,0,0,1-2.21,2.2H1L5.55,24.32A1.88,1.88,0,0,1,7.37,22.9H9.22v9.77H29.43a4.63,4.63,0,0,1,4.45,3.14l0,.09"/><line class="cls-1" x1="45.99" y1="30.86" x2="39.04" y2="30.86"/><line class="cls-1" x1="45.99" y1="35.09" x2="39.04" y2="35.09"/><line class="cls-1" x1="45.99" y1="39.2" x2="39.04" y2="39.2"/></g></svg>