<svg id="icons" xmlns="http://www.w3.org/2000/svg" viewBox="0 0 64 64"><defs><style>.cls-1{fill:none;stroke:#000;stroke-linecap:round;stroke-linejoin:round;stroke-width:2px;}</style></defs><title>metro</title><g id="metro"><polyline class="cls-1" points="3.67 43.11 10.45 37.03 10.45 27.19 3.67 27.19"/><line class="cls-1" x1="3.67" y1="47.19" x2="8.27" y2="47.19"/><path class="cls-1" d="M25.22,51.59a3.75,3.75,0,0,1-7.49,0"/><path class="cls-1" d="M37.22,51.59a3.75,3.75,0,0,1-7.49,0"/><line class="cls-1" x1="41.55" y1="53.01" x2="55.58" y2="53.01"/><path class="cls-1" d="M55.35,21.1H7.76a4.09,4.09,0,0,0-4.09,4.09V48.92A4.09,4.09,0,0,0,7.76,53H13.4"/><rect class="cls-1" x="17.87" y="27.19" width="11.78" height="10.06" transform="translate(47.52 64.43) rotate(-180)"/><rect class="cls-1" x="33.89" y="27.19" width="11.78" height="10.06" transform="translate(79.56 64.43) rotate(-180)"/><polyline class="cls-1" points="58.59 37.25 49.62 37.25 49.62 27.19 57.4 27.19"/><path class="cls-1" d="M13.4,53l1.24-3.41a3.65,3.65,0,0,1,3.43-2.41h19a3.67,3.67,0,0,1,3.5,2.6l1,3.22"/><path class="cls-1" d="M55.57,53a40.72,40.72,0,0,0,3-15.7v-.06A42.21,42.21,0,0,0,57.4,27.19a37.21,37.21,0,0,0-2-6.09C51.87,13.18,45.9,8,39.12,8S26.38,13.18,22.89,21.1"/></g></svg>