<svg id="icons" xmlns="http://www.w3.org/2000/svg" viewBox="0 0 64 64"><defs><style>.cls-1,.cls-2{fill:none;stroke:#000;stroke-width:2px;}.cls-1{stroke-linecap:round;stroke-linejoin:round;}.cls-2{stroke-miterlimit:10;}</style></defs><title>motorcicle</title><g id="motocycle"><line class="cls-1" x1="9.56" y1="24.23" x2="13.23" y2="24.23"/><circle class="cls-2" cx="10.41" cy="40.27" r="3.78"/><path class="cls-1" d="M24,25.45l-4.22-4.21,2.11-5.91S13.37,15.13,10.1,22a5.92,5.92,0,0,0-.53,2.53v3.17A1.41,1.41,0,0,0,11,29.08C14.71,29,24,29.92,24,42.87h27.1A2.87,2.87,0,0,0,54,40a2.93,2.93,0,0,0-.84-2,2.89,2.89,0,0,0-2-.84H35.85"/><path class="cls-1" d="M19.75,21.24h11a3.65,3.65,0,0,1,1.85.51L37,24.41a3.58,3.58,0,0,0,2.64.42l13.29-3a2,2,0,1,1,.82,3.88c-3.13.6-9.68,2.64-9.4,9.07a10.77,10.77,0,0,0,.38,2.37"/><path class="cls-1" d="M45.11,45.58a8.41,8.41,0,1,0,4-13.31"/><path class="cls-1" d="M18.81,40.27a8.4,8.4,0,1,1-8.4-8.39"/><line class="cls-1" x1="19.76" y1="31.73" x2="10.41" y2="40.27"/></g></svg>