<svg id="icons" xmlns="http://www.w3.org/2000/svg" viewBox="0 0 64 64"><defs><style>.cls-1{fill:none;stroke:#000;stroke-linecap:round;stroke-linejoin:round;stroke-width:2px;}</style></defs><title>ship</title><g id="ship"><path class="cls-1" d="M61,51.55a5.68,5.68,0,0,1-5.68,5.68c-3.14,0-5.69-.54-5.69-3.68"/><path class="cls-1" d="M49.62,53.55c0,3.14-2.54,3.68-5.68,3.68s-5.68-.54-5.68-3.68"/><path class="cls-1" d="M38.26,53.55c0,3.14-2.55,3.68-5.69,3.68s-5.68-.54-5.68-3.68"/><path class="cls-1" d="M26.89,53.55c0,3.14-2.55,3.68-5.69,3.68s-5.68-.54-5.68-3.68"/><path class="cls-1" d="M15.52,53.55c0,3.14-2.54,3.68-5.68,3.68a5.68,5.68,0,0,1-5.69-5.68"/><path class="cls-1" d="M10.32,50.7,2.23,37.31H27.37l5,6.69H58.84A2.26,2.26,0,0,1,61,46.36v5.19"/><path class="cls-1" d="M32.48,35.2h21a2.25,2.25,0,0,1,2.15,2.35V44"/><path class="cls-1" d="M9,37.31l16.48-18H42.66a2.26,2.26,0,0,1,2.15,2.35v4.29"/><path class="cls-1" d="M50.78,35.2V28.37A2.25,2.25,0,0,0,48.63,26H19.28"/><line class="cls-1" x1="33.63" y1="12.56" x2="33.63" y2="19.27"/><line class="cls-1" x1="38.44" y1="14.33" x2="28.94" y2="10.83"/><circle cx="14.26" cy="42.62" r="2.02"/><circle cx="45.22" cy="30.66" r="2.02"/><circle cx="45.22" cy="39.6" r="2.02"/><circle cx="34.04" cy="30.66" r="2.02"/><circle cx="23.73" cy="30.56" r="2.02"/></g></svg>