<svg id="icons" xmlns="http://www.w3.org/2000/svg" viewBox="0 0 64 64"><defs><style>.cls-1{fill:none;stroke:#000;stroke-linecap:round;stroke-linejoin:round;stroke-width:2px;}</style></defs><title>tractor_3</title><g id="tractor_3"><path class="cls-1" d="M17.73,44.94a8.78,8.78,0,0,0,8.44,6.43H53a8.78,8.78,0,0,0,8.75-8.76V41.49A8.78,8.78,0,0,0,53,32.74H26.17a8.79,8.79,0,0,0-8.44,6.42"/><path class="cls-1" d="M61.71,42.61V28.25A3.24,3.24,0,0,0,58.47,25H51.89V14.41a3.24,3.24,0,0,0-3.24-3.25H39.92a3.26,3.26,0,0,0-3.07,2.19L32.83,25H20.66a3.24,3.24,0,0,0-3.25,3.25V39.16"/><path class="cls-1" d="M36.25,15.11H45.7a1.6,1.6,0,0,1,1.6,1.59v6.71A1.6,1.6,0,0,1,45.7,25H32.83"/><circle class="cls-1" cx="52.75" cy="42.05" r="4.91"/><circle class="cls-1" cx="36.52" cy="42.05" r="4.91"/><path class="cls-1" d="M25.36,39.16a2.89,2.89,0,1,1,0,5.78"/><path class="cls-1" d="M25.36,39.16H11.83V27.33A2.32,2.32,0,0,0,9.5,25h0a2.32,2.32,0,0,0-2.25,1.74L1.57,48.89H8.86a2.74,2.74,0,0,0,2.74-2.74V44.94H25.36"/><line class="cls-1" x1="52.75" y1="42.05" x2="36.52" y2="42.05"/><path class="cls-1" d="M24.85,25V18.13a7.41,7.41,0,0,1,2.21-5.27h0"/></g></svg>