<svg id="icons" xmlns="http://www.w3.org/2000/svg" viewBox="0 0 64 64"><defs><style>.cls-1{fill:none;stroke:#000;stroke-linecap:round;stroke-linejoin:round;stroke-width:2px;}</style></defs><title>tractor_1</title><g id="tractor_1"><line class="cls-1" x1="3.16" y1="33.74" x2="7.76" y2="33.74"/><path class="cls-1" d="M41.72,10.57V7.72c0-1.08-.22-1-1.73-1s-1.72-.13-1.72,1v2.85"/><circle class="cls-1" cx="50.03" cy="43.4" r="10.03"/><circle class="cls-1" cx="15.49" cy="45.76" r="7.67"/><path class="cls-1" d="M37.46,28H22.55l5.26-15.23a3.25,3.25,0,0,1,3.07-2.18H49.14a3.24,3.24,0,0,1,3.24,3.24V28H43.81"/><path class="cls-1" d="M43.81,15.84h8.57a0,0,0,0,1,0,0V26a2,2,0,0,1-2,2H43.81a0,0,0,0,1,0,0V15.84a0,0,0,0,1,0,0Z" transform="translate(96.19 43.81) rotate(-180)"/><path class="cls-1" d="M26.75,15.84h8.59A2.12,2.12,0,0,1,37.46,18V28H22.55Z"/><line class="cls-1" x1="23.16" y1="45.76" x2="40.28" y2="45.76"/><path class="cls-1" d="M7.82,45.76H5.44a2.28,2.28,0,0,1-2.28-2.28V32.64A4.66,4.66,0,0,1,7.82,28H22.55"/><path class="cls-1" d="M43.81,28H56.19a3.87,3.87,0,0,1,3.87,3.87V43.4"/><path class="cls-1" d="M15.49,28V21.1a7.33,7.33,0,0,1,2.21-5.26h0"/><line class="cls-1" x1="35.19" y1="32.7" x2="28.25" y2="32.7"/><line class="cls-1" x1="35.19" y1="36.93" x2="28.25" y2="36.93"/><line class="cls-1" x1="35.19" y1="41.04" x2="28.25" y2="41.04"/></g></svg>