<svg id="icons" xmlns="http://www.w3.org/2000/svg" viewBox="0 0 64 64"><defs><style>.cls-1{fill:none;stroke:#000;stroke-linecap:round;stroke-linejoin:round;stroke-width:2px;}</style></defs><title>tractor_2</title><g id="tractor_2"><path class="cls-1" d="M36.29,15.11h9.46a1.59,1.59,0,0,1,1.59,1.59v6.71A1.59,1.59,0,0,1,45.75,25H32.87"/><path class="cls-1" d="M61.75,42.61V28.25A3.24,3.24,0,0,0,58.51,25H51.93V14.41a3.24,3.24,0,0,0-3.24-3.25H40a3.26,3.26,0,0,0-3.07,2.19L32.87,25H20.7a3.24,3.24,0,0,0-3.25,3.25V42.61"/><rect class="cls-1" x="17.45" y="34.75" width="44.3" height="15.72" rx="7.86" transform="translate(79.2 85.22) rotate(180)"/><circle class="cls-1" cx="52.55" cy="42.61" r="3.61"/><circle class="cls-1" cx="39.68" cy="42.61" r="3.61"/><circle class="cls-1" cx="26.65" cy="42.61" r="3.61"/><line class="cls-1" x1="7.71" y1="7.83" x2="23.73" y2="25"/><polyline class="cls-1" points="32.87 25 13.6 7.83 7.71 7.83 3.48 32"/><line class="cls-1" x1="12.25" y1="12.7" x2="6.9" y2="32"/><path class="cls-1" d="M8.38,32H2.22a.2.2,0,0,0-.2.19v9.89a2.15,2.15,0,0,0,2.15,2.14H14.72L10.89,33.76A2.67,2.67,0,0,0,8.38,32Z"/><line class="cls-1" x1="48.94" y1="42.61" x2="43.3" y2="42.61"/><line class="cls-1" x1="36.07" y1="42.61" x2="30.27" y2="42.61"/><path class="cls-1" d="M58.19,25V18.12a7.37,7.37,0,0,1,2.21-5.26h0"/></g></svg>