<svg id="icons" xmlns="http://www.w3.org/2000/svg" viewBox="0 0 64 64"><defs><style>.cls-1{fill:none;stroke:#000;stroke-linecap:round;stroke-linejoin:round;stroke-width:2px;}</style></defs><title>train</title><g id="train"><line class="cls-1" x1="2.59" y1="41.39" x2="7.2" y2="41.39"/><polyline class="cls-1" points="2.59 37.39 15 33.93 15 24.09 8.22 24.09"/><path class="cls-1" d="M26.63,44.14a3.75,3.75,0,0,1-7.49,0"/><path class="cls-1" d="M38.63,44.14a3.75,3.75,0,0,1-7.49,0"/><rect class="cls-1" x="19.74" y="24.19" width="11.78" height="10.06" transform="translate(51.25 58.43) rotate(-180)"/><rect class="cls-1" x="36.27" y="24.19" width="11.78" height="10.06" transform="translate(84.32 58.43) rotate(-180)"/><path class="cls-1" d="M57.44,18.1H11.58c-1.65,0-2.46,1.28-3,3l-1.2,3.11-4.8,13.2h0V43a3,3,0,0,0,3,3h7.61l1.33-3.4a3.92,3.92,0,0,1,3.69-2.41H38.6a3.91,3.91,0,0,1,3.76,2.59l1,3.22H56.85"/><line class="cls-1" x1="51.95" y1="24.19" x2="60.76" y2="24.19"/><line class="cls-1" x1="48.95" y1="38.19" x2="58.76" y2="38.19"/><line class="cls-1" x1="52.95" y1="31.19" x2="62.76" y2="31.19"/></g></svg>