<svg id="icons" xmlns="http://www.w3.org/2000/svg" viewBox="0 0 64 64"><defs><style>.cls-1{fill:none;stroke:#000;stroke-linecap:round;stroke-linejoin:round;stroke-width:2px;}</style></defs><title>tram</title><g id="tram"><polyline class="cls-1" points="2.69 40.39 15.1 36.93 15.1 27.09 8.32 27.09"/><path class="cls-1" d="M26.72,47.14a3.75,3.75,0,0,1-7.49,0"/><path class="cls-1" d="M38.72,47.14a3.75,3.75,0,0,1-7.49,0"/><rect class="cls-1" x="19.83" y="27.19" width="11.78" height="10.06" transform="translate(51.44 64.43) rotate(-180)"/><rect class="cls-1" x="36.37" y="27.19" width="11.78" height="10.06" transform="translate(84.52 64.43) rotate(-180)"/><path class="cls-1" d="M43.5,49h6a3,3,0,0,0,3-3v-22a3,3,0,0,0-3-3H11.68c-1.65,0-2.46,1.28-3,3l-1.2,3.11-4.8,13.2h0V46a3,3,0,0,0,3,3h7.61l1.32-3.4A3.93,3.93,0,0,1,18.3,43.2H38.7a3.9,3.9,0,0,1,3.75,2.59l1,3.22Z"/><path class="cls-1" d="M61.53,21.1a3,3,0,0,0-3,3V46a3,3,0,0,0,3,3"/><polygon class="cls-1" points="31.61 21.1 39.57 16.48 31.61 11.96 23.56 16.53 31.61 21.1"/></g></svg>