<svg id="icons" xmlns="http://www.w3.org/2000/svg" viewBox="0 0 64 64"><defs><style>.cls-1{fill:none;stroke:#000;stroke-linecap:round;stroke-linejoin:round;stroke-width:2px;}</style></defs><title>trolley_bus</title><g id="trolley_bus"><polyline class="cls-1" points="3.75 37.05 14.32 37.03 14.32 27.19 7.54 27.19"/><ellipse class="cls-1" cx="48.48" cy="49.01" rx="4.08" ry="3.85"/><ellipse class="cls-1" cx="18.4" cy="49.01" rx="4.08" ry="3.85"/><rect class="cls-1" x="20.5" y="27.19" width="11.78" height="10.06" transform="translate(52.79 64.43) rotate(-180)"/><rect class="cls-1" x="38.09" y="27.19" width="11.78" height="10.06" transform="translate(87.96 64.43) rotate(-180)"/><polyline class="cls-1" points="61.59 37.25 55.7 37.25 55.7 27.19 61.59 27.19"/><path class="cls-1" d="M52.56,49h6a3,3,0,0,0,3-3v-22a3,3,0,0,0-3-3H11.74c-1.65,0-2.46,1.28-3,3l-1.2,3.11-3.8,9.87v9a3,3,0,0,0,3,3h7.58"/><line class="cls-1" x1="22.48" y1="49.01" x2="44.4" y2="49.01"/><line class="cls-1" x1="3.75" y1="43.39" x2="8.36" y2="43.39"/><line class="cls-1" x1="31.61" y1="21.1" x2="41.66" y2="11.05"/><line class="cls-1" x1="42.61" y1="21.1" x2="52.66" y2="11.05"/></g></svg>