<svg id="icons" xmlns="http://www.w3.org/2000/svg" viewBox="0 0 64 64"><defs><style>.cls-1,.cls-2{fill:none;stroke:#000;stroke-linejoin:round;stroke-width:2px;}.cls-1{stroke-linecap:round;}</style></defs><title>truck_2</title><g id="truck_2"><line class="cls-1" x1="19.53" y1="45.99" x2="34.95" y2="45.99"/><line class="cls-1" x1="42.64" y1="45.99" x2="47.73" y2="45.99"/><path class="cls-1" d="M7.8,46H7.62a3.85,3.85,0,0,1-3.85-3.85V31.07a4.38,4.38,0,0,1,.44-1.91l3.36-6.87L8.7,20a3.3,3.3,0,0,1,3-1.86h7.86V46h-4"/><polyline class="cls-2" points="3.77 36.24 13.78 30.15 13.78 22.31 7.57 22.31"/><line class="cls-1" x1="3.77" y1="39.73" x2="7.52" y2="39.73"/><circle class="cls-1" cx="51.58" cy="45.99" r="3.85"/><circle class="cls-1" cx="38.79" cy="45.99" r="3.85"/><circle class="cls-1" cx="11.65" cy="45.99" r="3.85"/><path class="cls-1" d="M55.43,46h4.21V39.73H19.53L42.22,15.62c1.79-1.91,4-1.52,3.9.85h0A2.81,2.81,0,0,1,45.66,18l-18,21.72"/><path class="cls-1" d="M52.27,29.07c0,2.19-1.37,4-3.07,4s-3.08-1.77-3.08-4"/><line class="cls-1" x1="46.12" y1="16.47" x2="46.12" y2="29.07"/><path class="cls-1" d="M16.1,18.14V15.29c0-1.08-.22-.95-1.72-.95s-1.73-.13-1.73.95v2.85"/></g></svg>