<svg id="icons" xmlns="http://www.w3.org/2000/svg" viewBox="0 0 64 64"><defs><style>.cls-1,.cls-2{fill:none;stroke:#000;stroke-linejoin:round;stroke-width:2px;}.cls-1{stroke-linecap:round;}</style></defs><title>truck_6</title><g id="truck_6"><path class="cls-1" d="M55.4,47.84h4.21V19.3A3.31,3.31,0,0,0,56.3,16H22.81A3.31,3.31,0,0,0,19.5,19.3V47.84H34.92"/><line class="cls-1" x1="42.61" y1="47.84" x2="47.7" y2="47.84"/><path class="cls-1" d="M7.77,47.84H7.59A3.85,3.85,0,0,1,3.74,44V32.92A4.38,4.38,0,0,1,4.18,31l3.36-6.87,1.13-2.29a3.3,3.3,0,0,1,3-1.86H19.5V47.84h-4"/><polyline class="cls-2" points="3.74 38.09 13.74 32 13.74 24.16 7.54 24.16"/><line class="cls-1" x1="3.74" y1="42.13" x2="7.49" y2="42.13"/><line class="cls-1" x1="19.5" y1="42.13" x2="59.61" y2="42.13"/><circle class="cls-1" cx="51.55" cy="47.84" r="3.85"/><circle class="cls-1" cx="38.76" cy="47.84" r="3.85"/><circle class="cls-1" cx="11.62" cy="47.84" r="3.85"/></g></svg>