<svg id="icons" xmlns="http://www.w3.org/2000/svg" viewBox="0 0 64 64"><defs><style>.cls-1,.cls-2{fill:none;stroke:#000;stroke-linejoin:round;stroke-width:2px;}.cls-1{stroke-linecap:round;}</style></defs><title>truck_5</title><g id="truck_5"><line class="cls-1" x1="17.54" y1="47.91" x2="32.96" y2="47.91"/><polyline class="cls-1" points="53.44 47.91 57.65 47.91 57.65 42.2"/><line class="cls-1" x1="40.65" y1="47.91" x2="45.74" y2="47.91"/><path class="cls-1" d="M5.81,47.91H5.63a3.85,3.85,0,0,1-3.85-3.85V33a4.38,4.38,0,0,1,.44-1.91l3.36-6.87,1.13-2.29a3.3,3.3,0,0,1,3-1.86h7.86V47.91h-4"/><polyline class="cls-2" points="1.78 38.16 11.79 32.07 11.79 24.23 5.59 24.23"/><line class="cls-1" x1="1.78" y1="42.13" x2="5.53" y2="42.13"/><line class="cls-1" x1="17.54" y1="42.2" x2="57.66" y2="42.2"/><circle class="cls-1" cx="49.6" cy="47.92" r="3.85"/><circle class="cls-1" cx="36.81" cy="47.92" r="3.85"/><circle class="cls-1" cx="9.66" cy="47.92" r="3.85"/><polygon class="cls-1" points="20.34 15.99 27.1 42.13 61.61 42.13 61.61 20.06 29.51 20.06 27.1 15.99 20.34 15.99"/><line class="cls-1" x1="34.17" y1="25.07" x2="37.27" y2="37.05"/><line class="cls-1" x1="42.1" y1="25.07" x2="45.2" y2="37.05"/><line class="cls-1" x1="49.49" y1="25.07" x2="52.6" y2="37.05"/></g></svg>