<svg id="icons" xmlns="http://www.w3.org/2000/svg" viewBox="0 0 64 64"><defs><style>.cls-1,.cls-2{fill:none;stroke:#000;stroke-linejoin:round;stroke-width:2px;}.cls-1{stroke-linecap:round;}</style></defs><title>truck_3</title><g id="truck_3"><line class="cls-1" x1="17.4" y1="46.96" x2="32.82" y2="46.96"/><line class="cls-1" x1="40.51" y1="46.96" x2="45.6" y2="46.96"/><path class="cls-1" d="M5.67,47H5.49a3.85,3.85,0,0,1-3.85-3.85V32a4.38,4.38,0,0,1,.44-1.91l3.36-6.87L6.57,21a3.3,3.3,0,0,1,3-1.86H17.4V47h-4"/><polyline class="cls-2" points="1.64 37.2 11.65 31.12 11.65 23.28 5.45 23.28"/><line class="cls-1" x1="1.64" y1="40.7" x2="5.39" y2="40.7"/><circle class="cls-1" cx="49.46" cy="46.96" r="3.85"/><circle class="cls-1" cx="36.67" cy="46.96" r="3.85"/><circle class="cls-1" cx="9.52" cy="46.96" r="3.85"/><polyline class="cls-1" points="53.3 46.96 57.51 46.96 57.51 40.7 17.4 40.7"/><polyline class="cls-1" points="17.4 28.03 61.46 28.03 61.46 40.7 57.51 40.7"/><line class="cls-1" x1="30.51" y1="28.03" x2="33.61" y2="35.8"/><line class="cls-1" x1="38.44" y1="28.03" x2="41.54" y2="35.8"/><line class="cls-1" x1="45.83" y1="28.03" x2="48.93" y2="35.8"/></g></svg>