<svg id="icons" xmlns="http://www.w3.org/2000/svg" viewBox="0 0 64 64"><defs><style>.cls-1,.cls-2{fill:none;stroke:#000;stroke-linejoin:round;stroke-width:2px;}.cls-1{stroke-linecap:round;}</style></defs><title>truck_4</title><g id="truck_4"><line class="cls-1" x1="18.04" y1="47.91" x2="33.46" y2="47.91"/><polyline class="cls-1" points="53.94 47.91 58.15 47.91 58.15 40.7"/><line class="cls-1" x1="41.15" y1="47.91" x2="46.24" y2="47.91"/><path class="cls-1" d="M6.31,47.91H6.13a3.85,3.85,0,0,1-3.85-3.85V33a4.38,4.38,0,0,1,.44-1.91l3.36-6.87,1.13-2.29a3.3,3.3,0,0,1,3-1.86H18V47.91H14"/><polyline class="cls-2" points="2.28 38.16 12.29 32.07 12.29 24.23 6.08 24.23"/><line class="cls-1" x1="2.28" y1="41.65" x2="6.03" y2="41.65"/><circle class="cls-1" cx="50.09" cy="47.92" r="3.85"/><circle class="cls-1" cx="37.31" cy="47.92" r="3.85"/><circle class="cls-1" cx="10.16" cy="47.92" r="3.85"/><path class="cls-1" d="M26.47,41.65c-9.66-9.66,0-21,0-21H57.26s9.67,11.38,0,21H18"/><polyline class="cls-1" points="45.17 20.61 45.17 18.13 37.13 18.13 37.13 20.61"/><path class="cls-1" d="M45,33a3.9,3.9,0,1,1-7.77,0c0-2,3-4.69,3.71-7.8a.18.18,0,0,1,.34,0C42.07,28.29,45,30.94,45,33Z"/></g></svg>