<svg id="icons" xmlns="http://www.w3.org/2000/svg" viewBox="0 0 64 64"><defs><style>.cls-1{fill:none;stroke:#000;stroke-linecap:round;stroke-linejoin:round;stroke-width:2px;}</style></defs><title>truck_7</title><g id="truck_7"><line class="cls-1" x1="22.44" y1="44" x2="34.79" y2="44"/><line class="cls-1" x1="42.95" y1="44" x2="48.36" y2="44"/><path class="cls-1" d="M11.16,44H11c-2.05,0-3.7-1.34-3.7-3V32.4a2.9,2.9,0,0,1,.42-1.49l3.23-5.34L12,23.79a3.3,3.3,0,0,1,2.85-1.44h7.56V44H18.55"/><polyline class="cls-1" points="10.32 26.59 16.8 26.59 16.8 32.69 7.28 32.69"/><polyline class="cls-1" points="51.89 23.59 51.89 17.24 44.38 17.23"/><line class="cls-1" x1="7.28" y1="37.74" x2="10.89" y2="37.74"/><ellipse class="cls-1" cx="52.44" cy="44" rx="4.08" ry="3.85"/><ellipse class="cls-1" cx="38.87" cy="44" rx="4.08" ry="3.85"/><ellipse class="cls-1" cx="14.86" cy="44" rx="3.7" ry="3.85"/><polyline class="cls-1" points="56.95 44 60.99 44 60.99 37.74 22.44 37.74"/><path class="cls-1" d="M61,37.74v-2A1.85,1.85,0,0,0,59,34H37.93a1.86,1.86,0,0,0-2,1.73v2"/><path class="cls-1" d="M58,34V15.27a2.57,2.57,0,0,0-2.57-2.57H49.65"/><path class="cls-1" d="M44.38,17.23l-2.64,3.9a2.56,2.56,0,0,0-.47,1.46V34L27.56,17.24"/><line class="cls-1" x1="41.27" y1="23.59" x2="51.89" y2="23.59"/><path class="cls-1" d="M44.38,17.23l-35.7,0h0a2.13,2.13,0,0,1-2.09,2.16h0a2.13,2.13,0,0,1-2.1-2.16v-2A2.56,2.56,0,0,1,7.06,12.7H49.65"/><path class="cls-1" d="M2.25,23.35a2.2,2.2,0,0,0,2.17,2.24,2.2,2.2,0,0,0,2.17-2.24V19.41"/></g></svg>