<svg id="icons" xmlns="http://www.w3.org/2000/svg" viewBox="0 0 64 64"><defs><style>.cls-1{fill:none;stroke:#000;stroke-linecap:round;stroke-linejoin:round;stroke-width:2px;}</style></defs><title>truck_1</title><g id="truck_1"><line class="cls-1" x1="40.57" y1="45.03" x2="45.66" y2="45.03"/><line class="cls-1" x1="1.7" y1="38.77" x2="5.45" y2="38.77"/><circle class="cls-1" cx="49.52" cy="45.04" r="3.85"/><circle class="cls-1" cx="36.73" cy="45.04" r="3.85"/><circle class="cls-1" cx="9.58" cy="45.04" r="3.85"/><polyline class="cls-1" points="53.36 45.03 57.57 45.03 57.57 38.77 22.8 38.77"/><path class="cls-1" d="M58.05,38.77h3.47V16.35A4.58,4.58,0,0,0,57,11.78H27.36a4.57,4.57,0,0,0-4.56,4.57V45"/><path class="cls-1" d="M22.8,16.24H16.29a3.32,3.32,0,0,0-3.07,2.07l-4.38,11,9.48-.09V21.35H12.45"/><polyline class="cls-1" points="32.88 45.03 22.8 45.03 17.46 45.03 13.43 45.03"/><path class="cls-1" d="M5.74,45h-4V36.42a7.14,7.14,0,0,1,7.14-7.14h0"/></g></svg>