<svg id="icons" xmlns="http://www.w3.org/2000/svg" viewBox="0 0 64 64"><defs><style>.cls-1{fill:none;stroke:#000;stroke-linecap:round;stroke-linejoin:round;stroke-width:2px;}</style></defs><title>van</title><g id="van"><line class="cls-1" x1="2.43" y1="37.77" x2="7.03" y2="37.77"/><ellipse class="cls-1" cx="48.03" cy="46.08" rx="4.08" ry="3.85"/><ellipse class="cls-1" cx="13.89" cy="46.08" rx="4.08" ry="3.85"/><line class="cls-1" x1="17.97" y1="46.08" x2="43.94" y2="46.08"/><path class="cls-1" d="M9.33,29.91H8.72a6.27,6.27,0,0,0-6.29,6.27V42.8a3.28,3.28,0,0,0,3.28,3.28H9.8"/><path class="cls-1" d="M52.11,46.08h5.4a3.28,3.28,0,0,0,3.28-3.28V18.4a4.32,4.32,0,0,0-4.32-4.33H21.77a4.32,4.32,0,0,0-3.65,2l-2.54,4L9.33,29.91h15a1.78,1.78,0,0,0,1.78-1.78V21.84a1.78,1.78,0,0,0-1.78-1.77H15.55"/></g></svg>