<svg id="icons" xmlns="http://www.w3.org/2000/svg" viewBox="0 0 64 64"><defs><style>.cls-1{fill:none;stroke:#000;stroke-linecap:round;stroke-linejoin:round;stroke-width:2px;}</style></defs><title>yacht</title><g id="yacht"><polyline class="cls-1" points="54.99 53.91 51.45 49.19 9.35 49.19 12.43 53.91"/><path class="cls-1" d="M29.31,49.19V2.09l9.26,2.64L29.31,8.08,51.79,43.91h-40S1.35,15.24,29.31,12.1"/><path class="cls-1" d="M60,54.94a5.68,5.68,0,0,1-5.69,5.68c-3.14,0-5.68-.54-5.68-3.68"/><path class="cls-1" d="M48.6,56.94c0,3.14-2.54,3.68-5.68,3.68s-5.69-.54-5.69-3.68"/><path class="cls-1" d="M37.23,56.94c0,3.14-2.54,3.68-5.68,3.68s-5.68-.54-5.68-3.68"/><path class="cls-1" d="M25.87,56.94c0,3.14-2.55,3.68-5.69,3.68s-5.68-.54-5.68-3.68"/><path class="cls-1" d="M14.5,56.94c0,3.14-2.55,3.68-5.68,3.68a5.68,5.68,0,0,1-5.69-5.68"/></g></svg>